<?xml version="1.0" encoding="UTF-8"?>
<svg id="Logos-vector" xmlns="http://www.w3.org/2000/svg" viewBox="0 0 270 134">
  <defs>
    <style>
      .cls-1 {
        fill: #143d60;
      }

      .cls-2 {
        fill: #ddeb9d;
      }
    </style>
  </defs>
  <g>
    <path class="cls-2" d="M130.01,105.54c-27.99-20.77-63.09-29.75-96.81-36.71l26.12-34.21c8.31,1.33,16.45,4.02,24.48,6.58l.59.64c7.24,22.2,26.01,37.23,39.86,54.9.78,1,6.23,8.23,5.75,8.81Z"/>
    <path class="cls-2" d="M237.08,68.62c-25.62,5.22-50.95,12.33-74.81,23.04l-22.41,12.25c-.18-.77.43-.97.82-1.43,16.09-19.33,37.81-35.54,44.71-61.03l.51-.43c5.5-1.6,10.98-3.41,16.55-4.76,1.51-.37,6.98-1.92,7.96-1.48l26.67,33.85Z"/>
    <path class="cls-2" d="M21.3,93.24l-4.06,5.6c-.09.8.96,1.05,1.57,1.19,4.48,1.03,9.94.32,14.54.64,25.91,4.81,51.97,8.8,77.88,13.6,2.2.41,6.87.91,8.64,1.62,1.03.42,1.34,1.88,2.66,2.67,5.14,3.07,19.38,2.75,24.6-.18.89-.5,1.1-2,2.47-2.08l85.68-15.64c5.79-.27,11.7.5,17.35-.9,1.01-1.5-4.2-5.95-3.65-6.53,3.05,2.57,7.4,4.09,9.03,7.98l-108.49,19.12c-8.08,7.31-24.01,7.84-31.29-.76L11.87,101.44l1.27-2.21,8.16-5.99Z"/>
    <path class="cls-2" d="M134.11,33.96c1.39-9.72,12.74-20.68,22.07-23.06,23.74-6.04,34.56,19.81,24.36,38.31l-2.53,4.65v-7.18c0-1.51-1.45-5.76-2.11-7.33-7.93-18.91-30.8-10.61-37.9,4.24l-3.89,9.44c.6-5.89-.81-13.38,0-19.08Z"/>
    <path class="cls-2" d="M132.06,53.85l-5.26-11.76c-11.17-21.49-37.54-16.35-35.06,9.63.04.45.48,1.4-.29,1.31-4.42-8.3-7.53-15.37-5.56-25.04,4.66-22.86,31.08-22.59,41.98-4.21.72,1.21,4.18,8.52,4.18,9.36v20.72Z"/>
    <path class="cls-2" d="M242.41,87.9c-5.93-.37-11.9-.59-17.86-.42-25.46.71-60.85,5.6-81.95,20.6-1.36.96-2.61,2.03-3.83,3.16l-3.02-1.6c27.07-20,60.3-29.39,92.69-37.14l13.97,15.4Z"/>
    <path class="cls-2" d="M131.65,109.24c-1.92,2.44-3.52-.43-5.14-1.64-21.14-15.76-53.49-18.72-79.16-19.71-6.48-.25-13.06-.74-19.6-.3-.46.03-.81.83-.71-.3l14.48-14.9c25.54,6.3,52.68,13.22,75.48,26.67,5.14,3.03,9.88,6.73,14.64,10.18Z"/>
    <path class="cls-2" d="M249.8,98.15c-.49.65-13.02.46-14.99.43-28.61-.43-57.68-1.44-84.15,11.39-1.55.75-6.01,3.87-7,4.11-1.18.29-2.13-.68-2.97-1.38-.3-1.19,7.78-6.04,9.16-6.82,26.44-14.88,63.48-16.76,93.2-15.93l6.76,8.2Z"/>
    <path class="cls-2" d="M20.48,98.16l5.93-7.81,1.26-.79c21.33-.21,43.03.79,63.86,5.45,12.88,2.88,26.58,7.43,36.43,16.49l-1.84,1.35c-12.3-8.85-28.92-12.66-43.89-14.27-15.77-1.69-31.06-.44-46.75.01-4.98.14-10.05.09-14.99-.43Z"/>
    <path class="cls-2" d="M124.68,113.75l-2.23,1.66-.66-1.02c-25.74-5.28-51.87-8.96-77.72-13.79-.67-.13-.71.27-.62-.8,27.56-.35,56.96-.79,81.22,13.95Z"/>
    <path class="cls-2" d="M225.59,100.21l-80.81,15.38c12.67-7.74,27.43-11.69,42.11-13.68,10.17-1.38,20.87-2.01,31.1-2.13,2.6-.03,5.03.4,7.6.43Z"/>
    <path class="cls-2" d="M133.19,110.95c.74-.13.98,0,1.62.25.7.26,8.72,5.51,8.72,6.04-5.79,2.27-12.96,1.86-18.87,0-.6-.48-.35-.39,0-.83.58-.74,7.62-5.31,8.52-5.46Z"/>
  </g>
  <path class="cls-1" d="M136.16,24.73C145.23,6.24,174.49.03,183.82,21.58c1.15,2.67,2.74,8.3,2.39,17.09l25.02-6.37,28.67,36.6c.27.95-.21,1.07-.93,1.4-2.17.98-5.46.4-7.62,1.81l15.16,17.25c4.46,3.69,14.52,6.75,13.32,13.77l-108.56,18.94c-9.15,7.14-25.6,8.67-33.87-.51L10.86,103.48c-1.42-.11-1.18-1.88-.95-2.97.73-3.45,10.58-8.89,13.4-11.62.87-.84,1.46-2.17,2.29-3.04,4.35-4.54,8.73-9.05,12.92-13.74l-7.8-1.63-.34-1.15,28.04-36.84,24.82,6.19s-3.61-26.92,18.71-29.6,31.25,19.64,31.25,22.32c0,0,1.46-4.4,2.96-6.67ZM134.11,33.96c-.81,5.69.6,13.18,0,19.08l3.89-9.44c7.1-14.85,29.97-23.15,37.9-4.24.66,1.57,2.11,5.82,2.11,7.33v7.18l2.53-4.65c10.2-18.5-.62-44.35-24.36-38.31-9.32,2.37-20.68,13.33-22.07,23.06ZM132.06,53.85v-20.72c0-.83-3.47-8.15-4.18-9.36-10.91-18.37-37.33-18.64-41.98,4.21-1.97,9.67,1.14,16.74,5.56,25.04.77.08.33-.86.29-1.31-2.48-25.97,23.88-31.11,35.06-9.63l5.26,11.76ZM132.47,104.72c.27-1.49-.36-2.88-.42-4.29-.89-21.44,4.29-42.92-9.66-61.31-16.58-21.84-38.11,2.2-25.12,22.66,7.15,11.25,18.55,21.28,26.99,31.67,2.94,3.62,5.5,7.5,8.21,11.27ZM134.11,106.77c.79.19.79-.29,1.15-.69,3.28-3.6,6.35-7.91,9.71-11.62,8.98-9.91,19.84-19.46,27.21-30.63,9.25-14.01,1.65-39.39-18.5-32.03-13.35,4.88-18.8,21.1-19.57,34.17-.79,13.33.58,27.4,0,40.81ZM130.01,105.54c.48-.58-4.97-7.81-5.75-8.81-13.86-17.67-32.63-32.69-39.86-54.9l-.59-.64c-8.03-2.56-16.17-5.24-24.48-6.58l-26.12,34.21c33.71,6.96,68.82,15.94,96.81,36.71ZM237.08,68.62l-26.67-33.85c-.97-.45-6.44,1.11-7.96,1.48-5.57,1.35-11.05,3.16-16.55,4.76l-.51.43c-6.9,25.48-28.62,41.69-44.71,61.03-.38.46-.99.66-.82,1.43l22.41-12.25c23.85-10.71,49.19-17.82,74.81-23.04ZM131.65,109.24c-4.76-3.45-9.5-7.15-14.64-10.18-22.8-13.45-49.94-20.36-75.48-26.67l-14.48,14.9c-.1,1.13.25.33.71.3,6.54-.44,13.12.05,19.6.3,25.67.98,58.02,3.94,79.16,19.71,1.62,1.21,3.22,4.08,5.14,1.64ZM242.41,87.9l-13.97-15.4c-32.39,7.75-65.62,17.14-92.69,37.14l3.02,1.6c1.21-1.14,2.47-2.2,3.83-3.16,21.11-15,56.49-19.9,81.95-20.6,5.96-.17,11.93.05,17.86.42ZM20.48,98.16c4.93.52,10,.57,14.99.43,15.69-.45,30.98-1.71,46.75-.01,14.97,1.61,31.59,5.42,43.89,14.27l1.84-1.35c-9.84-9.05-23.55-13.61-36.43-16.49-20.83-4.66-42.53-5.66-63.86-5.45l-1.26.79-5.93,7.81ZM249.8,98.15l-6.76-8.2c-29.72-.82-66.75,1.06-93.2,15.93-1.38.78-9.45,5.63-9.16,6.82.83.71,1.79,1.67,2.97,1.38.99-.24,5.45-3.36,7-4.11,26.48-12.83,55.54-11.82,84.15-11.39,1.97.03,14.51.21,14.99-.43ZM21.3,93.24l-8.16,5.99-1.27,2.21,106.36,18.14c7.28,8.6,23.21,8.06,31.29.76l108.49-19.12c-1.63-3.9-5.99-5.41-9.03-7.98-.55.58,4.66,5.03,3.65,6.53-5.65,1.41-11.56.63-17.35.9l-85.68,15.64c-1.37.08-1.58,1.58-2.47,2.08-5.22,2.92-19.46,3.25-24.6.18-1.33-.79-1.63-2.25-2.66-2.67-1.76-.71-6.43-1.21-8.64-1.62-25.9-4.8-51.97-8.8-77.88-13.6-4.59-.32-10.06.39-14.54-.64-.61-.14-1.66-.39-1.57-1.19l4.06-5.6ZM124.68,113.75c-24.26-14.74-53.66-14.3-81.22-13.95-.09,1.07-.05.68.62.8,25.85,4.83,51.98,8.51,77.72,13.79l.66,1.02,2.23-1.66ZM225.59,100.21c-2.57-.03-5-.46-7.6-.43-10.23.11-20.93.74-31.1,2.13-14.68,2-29.44,5.94-42.11,13.68l80.81-15.38ZM133.19,110.95c-.9.15-7.94,4.72-8.52,5.46-.34.44-.6.35,0,.83,5.9,1.85,13.08,2.27,18.87,0,0-.53-8.03-5.78-8.72-6.04-.64-.24-.88-.37-1.62-.25Z"/>
</svg>