<?xml version="1.0" encoding="UTF-8"?>
<svg id="Logos-vector" xmlns="http://www.w3.org/2000/svg" viewBox="0 0 783 133">
  <defs>
    <style>
      .cls-1 {
        fill: #143d60;
      }

      .cls-2 {
        fill: #ddeb9d;
      }
    </style>
  </defs>
  <g>
    <g>
      <path class="cls-2" d="M130.01,104.54c-27.99-20.77-63.09-29.75-96.81-36.71l26.12-34.21c8.31,1.33,16.45,4.02,24.48,6.58l.59.64c7.24,22.2,26.01,37.23,39.86,54.9.78,1,6.23,8.23,5.75,8.81Z"/>
      <path class="cls-2" d="M237.08,67.62c-25.62,5.22-50.95,12.33-74.81,23.04l-22.41,12.25c-.18-.77.43-.97.82-1.43,16.09-19.33,37.81-35.54,44.71-61.03l.51-.43c5.5-1.6,10.98-3.41,16.55-4.76,1.51-.37,6.98-1.92,7.96-1.48l26.67,33.85Z"/>
      <path class="cls-2" d="M21.3,92.24l-4.06,5.6c-.09.8.96,1.05,1.57,1.19,4.48,1.03,9.94.32,14.54.64,25.91,4.81,51.97,8.8,77.88,13.6,2.2.41,6.87.91,8.64,1.62,1.03.42,1.34,1.88,2.66,2.67,5.14,3.07,19.38,2.75,24.6-.18.89-.5,1.1-2,2.47-2.08l85.68-15.64c5.79-.27,11.7.5,17.35-.9,1.01-1.5-4.2-5.95-3.65-6.53,3.05,2.57,7.4,4.09,9.03,7.98l-108.49,19.12c-8.08,7.31-24.01,7.84-31.29-.76L11.87,100.44l1.27-2.21,8.16-5.99Z"/>
      <path class="cls-2" d="M134.11,32.96c1.39-9.72,12.74-20.68,22.07-23.06,23.74-6.04,34.56,19.81,24.36,38.31l-2.53,4.65v-7.18c0-1.51-1.45-5.76-2.11-7.33-7.93-18.91-30.8-10.61-37.9,4.24l-3.89,9.44c.6-5.89-.81-13.38,0-19.08Z"/>
      <path class="cls-2" d="M132.06,52.85l-5.26-11.76c-11.17-21.49-37.54-16.35-35.06,9.63.04.45.48,1.4-.29,1.31-4.42-8.3-7.53-15.37-5.56-25.04,4.66-22.86,31.08-22.59,41.98-4.21.72,1.21,4.18,8.52,4.18,9.36v20.72Z"/>
      <path class="cls-2" d="M242.41,86.9c-5.93-.37-11.9-.59-17.86-.42-25.46.71-60.85,5.6-81.95,20.6-1.36.96-2.61,2.03-3.83,3.16l-3.02-1.6c27.07-20,60.3-29.39,92.69-37.14l13.97,15.4Z"/>
      <path class="cls-2" d="M131.65,108.24c-1.92,2.44-3.52-.43-5.14-1.64-21.14-15.76-53.49-18.72-79.16-19.71-6.48-.25-13.06-.74-19.6-.3-.46.03-.81.83-.71-.3l14.48-14.9c25.54,6.3,52.68,13.22,75.48,26.67,5.14,3.03,9.88,6.73,14.64,10.18Z"/>
      <path class="cls-2" d="M249.8,97.15c-.49.65-13.02.46-14.99.43-28.61-.43-57.68-1.44-84.15,11.39-1.55.75-6.01,3.87-7,4.11-1.18.29-2.13-.68-2.97-1.38-.3-1.19,7.78-6.04,9.16-6.82,26.44-14.88,63.48-16.76,93.2-15.93l6.76,8.2Z"/>
      <path class="cls-2" d="M20.48,97.16l5.93-7.81,1.26-.79c21.33-.21,43.03.79,63.86,5.45,12.88,2.88,26.58,7.43,36.43,16.49l-1.84,1.35c-12.3-8.85-28.92-12.66-43.89-14.27-15.77-1.69-31.06-.44-46.75.01-4.98.14-10.05.09-14.99-.43Z"/>
      <path class="cls-2" d="M124.68,112.75l-2.23,1.66-.66-1.02c-25.74-5.28-51.87-8.96-77.72-13.79-.67-.13-.71.27-.62-.8,27.56-.35,56.96-.79,81.22,13.95Z"/>
      <path class="cls-2" d="M225.59,99.21l-80.81,15.38c12.67-7.74,27.43-11.69,42.11-13.68,10.17-1.38,20.87-2.01,31.1-2.13,2.6-.03,5.03.4,7.6.43Z"/>
      <path class="cls-2" d="M133.19,109.95c.74-.13.98,0,1.62.25.7.26,8.72,5.51,8.72,6.04-5.79,2.27-12.96,1.86-18.87,0-.6-.48-.35-.39,0-.83.58-.74,7.62-5.31,8.52-5.46Z"/>
    </g>
    <path class="cls-1" d="M136.16,23.73c9.07-18.48,38.33-24.7,47.66-3.14,1.15,2.67,2.74,8.3,2.39,17.09l25.02-6.37,28.67,36.6c.27.95-.21,1.07-.93,1.4-2.17.98-5.46.4-7.62,1.81l15.16,17.25c4.46,3.69,14.52,6.75,13.32,13.77l-108.56,18.94c-9.15,7.14-25.6,8.67-33.87-.51L10.86,102.48c-1.42-.11-1.18-1.88-.95-2.97.73-3.45,10.58-8.89,13.4-11.62.87-.84,1.46-2.17,2.29-3.04,4.35-4.54,8.73-9.05,12.92-13.74l-7.8-1.63-.34-1.15,28.04-36.84,24.82,6.19s-3.61-26.92,18.71-29.6,31.25,19.64,31.25,22.32c0,0,1.46-4.4,2.96-6.67ZM134.11,32.96c-.81,5.69.6,13.18,0,19.08l3.89-9.44c7.1-14.85,29.97-23.15,37.9-4.24.66,1.57,2.11,5.82,2.11,7.33v7.18l2.53-4.65c10.2-18.5-.62-44.35-24.36-38.31-9.32,2.37-20.68,13.33-22.07,23.06ZM132.06,52.85v-20.72c0-.83-3.47-8.15-4.18-9.36-10.91-18.37-37.33-18.64-41.98,4.21-1.97,9.67,1.14,16.74,5.56,25.04.77.08.33-.86.29-1.31-2.48-25.97,23.88-31.11,35.06-9.63l5.26,11.76ZM132.47,103.72c.27-1.49-.36-2.88-.42-4.29-.89-21.44,4.29-42.92-9.66-61.31-16.58-21.84-38.11,2.2-25.12,22.66,7.15,11.25,18.55,21.28,26.99,31.67,2.94,3.62,5.5,7.5,8.21,11.27ZM134.11,105.77c.79.19.79-.29,1.15-.69,3.28-3.6,6.35-7.91,9.71-11.62,8.98-9.91,19.84-19.46,27.21-30.63,9.25-14.01,1.65-39.39-18.5-32.03-13.35,4.88-18.8,21.1-19.57,34.17-.79,13.33.58,27.4,0,40.81ZM130.01,104.54c.48-.58-4.97-7.81-5.75-8.81-13.86-17.67-32.63-32.69-39.86-54.9l-.59-.64c-8.03-2.56-16.17-5.24-24.48-6.58l-26.12,34.21c33.71,6.96,68.82,15.94,96.81,36.71ZM237.08,67.62l-26.67-33.85c-.97-.45-6.44,1.11-7.96,1.48-5.57,1.35-11.05,3.16-16.55,4.76l-.51.43c-6.9,25.48-28.62,41.69-44.71,61.03-.38.46-.99.66-.82,1.43l22.41-12.25c23.85-10.71,49.19-17.82,74.81-23.04ZM131.65,108.24c-4.76-3.45-9.5-7.15-14.64-10.18-22.8-13.45-49.94-20.36-75.48-26.67l-14.48,14.9c-.1,1.13.25.33.71.3,6.54-.44,13.12.05,19.6.3,25.67.98,58.02,3.94,79.16,19.71,1.62,1.21,3.22,4.08,5.14,1.64ZM242.41,86.9l-13.97-15.4c-32.39,7.75-65.62,17.14-92.69,37.14l3.02,1.6c1.21-1.14,2.47-2.2,3.83-3.16,21.11-15,56.49-19.9,81.95-20.6,5.96-.17,11.93.05,17.86.42ZM20.48,97.16c4.93.52,10,.57,14.99.43,15.69-.45,30.98-1.71,46.75-.01,14.97,1.61,31.59,5.42,43.89,14.27l1.84-1.35c-9.84-9.05-23.55-13.61-36.43-16.49-20.83-4.66-42.53-5.66-63.86-5.45l-1.26.79-5.93,7.81ZM249.8,97.15l-6.76-8.2c-29.72-.82-66.75,1.06-93.2,15.93-1.38.78-9.45,5.63-9.16,6.82.83.71,1.79,1.67,2.97,1.38.99-.24,5.45-3.36,7-4.11,26.48-12.83,55.54-11.82,84.15-11.39,1.97.03,14.51.21,14.99-.43ZM21.3,92.24l-8.16,5.99-1.27,2.21,106.36,18.14c7.28,8.6,23.21,8.06,31.29.76l108.49-19.12c-1.63-3.9-5.99-5.41-9.03-7.98-.55.58,4.66,5.03,3.65,6.53-5.65,1.41-11.56.63-17.35.9l-85.68,15.64c-1.37.08-1.58,1.58-2.47,2.08-5.22,2.92-19.46,3.25-24.6.18-1.33-.79-1.63-2.25-2.66-2.67-1.76-.71-6.43-1.21-8.64-1.62-25.9-4.8-51.97-8.8-77.88-13.6-4.59-.32-10.06.39-14.54-.64-.61-.14-1.66-.39-1.57-1.19l4.06-5.6ZM124.68,112.75c-24.26-14.74-53.66-14.3-81.22-13.95-.09,1.07-.05.68.62.8,25.85,4.83,51.98,8.51,77.72,13.79l.66,1.02,2.23-1.66ZM225.59,99.21c-2.57-.03-5-.46-7.6-.43-10.23.11-20.93.74-31.1,2.13-14.68,2-29.44,5.94-42.11,13.68l80.81-15.38ZM133.19,109.95c-.9.15-7.94,4.72-8.52,5.46-.34.44-.6.35,0,.83,5.9,1.85,13.08,2.27,18.87,0,0-.53-8.03-5.78-8.72-6.04-.64-.24-.88-.37-1.62-.25Z"/>
  </g>
  <g>
    <path class="cls-1" d="M313.04,51.12c-.09,1.82-.16,3.85-.23,6.08-.07,2.23-.12,4.5-.16,6.79-.04,2.3-.05,4.55-.03,6.76.02,2.21.11,4.2.26,5.98.15,1.78.37,3.26.65,4.45.28,1.19.66,1.9,1.14,2.11-.17.52-.54,1.01-1.1,1.46-.56.46-1.2.86-1.92,1.2-.72.35-1.44.63-2.18.84-.74.22-1.39.35-1.95.39-1.65.13-2.9-.44-3.77-1.72-.87-1.28-1.46-2.98-1.79-5.1-.33-2.12-.46-4.57-.39-7.34.07-2.77.23-5.6.49-8.48.26-2.88.54-5.7.84-8.45.3-2.75.54-5.21.71-7.38.04-.69-.07-1.18-.33-1.46-.26-.28-.61-.4-1.04-.36-.43.04-.88.21-1.33.49-.46.28-.81.64-1.07,1.07-.17.26-.28.45-.32.58-.56.91-1.02,1.8-1.37,2.67-.43,1-.81,2.05-1.14,3.15-.33,1.1-.62,2.26-.88,3.48-.13.61-.26,1.22-.39,1.85-.13.63-.24,1.27-.33,1.92-.26,1.3-.46,2.62-.58,3.96-.09.69-.19,1.38-.29,2.05-.11.67-.21,1.38-.29,2.11,0,.22-.01.4-.03.55-.02.15-.05.34-.1.55-.04.09-.07.18-.07.29s-.02.21-.07.29c0,.04-.04.15-.13.32,0,.13-.02.22-.07.26l-.06.13-.06.06s-.01.06-.03.06-.03.02-.03.07l-.13.13c-.09.09-.17.15-.26.19-.09.09-.22.13-.39.13h-.39l-.2-.06-.13-.06s-.08-.06-.1-.06-.05-.02-.1-.06l-.2-.19s-.08-.09-.1-.13c-.02-.04-.06-.09-.1-.13,0-.04-.01-.08-.03-.1-.02-.02-.03-.05-.03-.1-.09-.17-.15-.28-.2-.33,0-.09,0-.14-.03-.16-.02-.02-.03-.08-.03-.16-.09-.22-.15-.41-.2-.59-.04-.17-.09-.35-.13-.52-.09-.39-.16-.77-.23-1.14-.06-.37-.14-.73-.23-1.07-.09-.35-.14-.7-.16-1.07-.02-.37-.08-.73-.16-1.07-.13-.74-.25-1.46-.36-2.18-.11-.71-.23-1.44-.36-2.18-.13-.74-.25-1.46-.36-2.18-.11-.71-.23-1.42-.36-2.11-.09-.35-.16-.7-.23-1.07-.07-.37-.14-.73-.23-1.07-.09-.35-.17-.68-.26-1.01-.09-.32-.17-.66-.26-1.01-.09.26-.13.41-.13.46-.09.17-.14.34-.16.49-.02.15-.08.31-.16.49l-.2.98c-.09.22-.17.54-.26.98-.26,1.34-.49,2.65-.68,3.93-.19,1.28-.38,2.55-.55,3.8-.17,1.26-.34,2.47-.49,3.64-.15,1.17-.29,2.32-.42,3.44-.13,1.08-.26,2.12-.39,3.12-.13,1-.24,1.93-.32,2.79-.13.87-.26,1.69-.39,2.47-.13.78-.24,1.5-.32,2.15-.04.17-.07.32-.07.46s-.02.26-.06.39c-.04.17-.08.33-.1.46s-.03.26-.03.39c-.09.22-.14.43-.16.65-.02.22-.05.41-.1.58,0,.22-.02.37-.07.46v.06c-.26,1.17-.71,2.11-1.37,2.83-.65.71-1.38,1.27-2.18,1.66-.8.39-1.6.65-2.4.78-.8.13-1.48.19-2.05.19-1.43.04-2.57-.6-3.41-1.92-.84-1.32-1.47-3.09-1.89-5.3s-.64-4.77-.68-7.67c-.04-2.9,0-5.92.16-9.04.15-3.12.37-6.23.65-9.33.28-3.1.52-5.97.71-8.61.2-2.64.33-4.95.42-6.92.09-1.97.02-3.37-.19-4.19,2.34-.39,4.38-.35,6.11.13.74.22,1.45.53,2.14.94.69.41,1.3.98,1.82,1.69s.92,1.6,1.2,2.67c.28,1.06.36,2.33.23,3.8-.13,1.3-.24,2.75-.32,4.35-.09,1.6-.17,3.27-.26,5-.09,1.73-.16,3.51-.23,5.33-.06,1.82-.12,3.62-.16,5.4.17-.61.32-1.2.46-1.79.13-.58.28-1.18.46-1.79.17-.61.33-1.22.49-1.85.15-.63.34-1.27.55-1.92.09-.35.17-.67.26-.98.09-.3.17-.63.26-.98.09-.35.18-.68.29-1.01.11-.33.21-.66.29-1.01.04-.17.09-.34.13-.49.04-.15.09-.33.13-.55.17-.43.28-.76.33-.98.09-.22.15-.4.19-.55.04-.15.11-.31.2-.49.13-.39.28-.76.46-1.1.09-.26.17-.46.26-.58.04-.13.15-.33.33-.58l.32-.33c.17-.17.33-.3.46-.39.13-.13.28-.2.46-.2.04-.04.15-.06.33-.06h.26c.22,0,.41.04.58.13.17.09.3.17.39.26.17.13.3.26.39.39.09.09.17.22.26.39.09.17.17.39.26.65.22.43.35.8.39,1.1.09.39.17.77.26,1.14.09.37.17.73.26,1.07.09.39.15.77.2,1.14.04.37.11.73.19,1.07.13.74.25,1.46.36,2.18.11.71.21,1.44.29,2.18.09.39.14.77.16,1.14.02.37.08.73.16,1.07.09.35.14.7.16,1.07.02.37.07.73.16,1.07l.2,1.56c.04-.3.09-.58.13-.85.04-.26.09-.52.13-.78.09-.69.18-1.38.29-2.05.11-.67.21-1.33.29-1.98.09-.69.2-1.35.33-1.98.13-.63.26-1.27.39-1.92.17-.61.33-1.21.45-1.82.13-.61.28-1.21.46-1.82.22-.61.41-1.18.59-1.72.17-.54.37-1.07.58-1.59.22-.56.44-1.08.68-1.56.24-.48.49-.95.75-1.43.26-.48.54-.93.84-1.37.3-.43.63-.82.97-1.17.74-.74,1.43-1.28,2.08-1.62.04-.04.08-.06.1-.06s.05-.02.1-.06c.43-.22.85-.38,1.24-.49.39-.11.78-.21,1.17-.29.09,0,.15-.02.19-.06,1.6-.22,3.03-.13,4.29.26,1.08.35,2.08,1.04,2.99,2.08.91,1.04,1.41,2.69,1.49,4.94v1.04Z"/>
    <path class="cls-1" d="M354.71,66.59l-11.18,14.17c1,4.16,1.65,7.8,1.95,10.92.3,3.12.37,5.8.19,8.03-.17,2.23-.51,4.08-1.01,5.56-.5,1.47-1.03,2.64-1.59,3.51-.56.87-1.13,1.5-1.69,1.88-.56.39-.97.63-1.24.72-.43.22-.84.36-1.24.42-.39.06-.76.12-1.1.16-1.21.09-2.21-.41-2.99-1.5-.78-1.08-1.42-2.59-1.92-4.52-.5-1.93-.87-4.15-1.11-6.66-.24-2.51-.39-5.17-.46-7.96s-.09-5.6-.06-8.42c.02-2.82.05-5.48.1-8-.43,1.26-.96,2.47-1.59,3.64-.63,1.17-1.38,2.21-2.24,3.12s-1.88,1.64-3.02,2.18c-1.15.54-2.44.79-3.87.75-1.73-.09-3.03-.67-3.9-1.75-.87-1.08-1.45-2.46-1.76-4.13-.3-1.67-.4-3.48-.29-5.43.11-1.95.27-3.82.49-5.62.22-1.8.42-3.37.62-4.71.2-1.34.23-2.25.1-2.73,1.78-.26,3.36-.24,4.75.06.56.13,1.12.33,1.66.58.54.26,1.01.62,1.4,1.07.39.46.67,1.01.84,1.66.17.65.2,1.45.07,2.4-.35,2.47-.62,4.7-.81,6.69-.19,1.99-.22,3.55-.07,4.68.15,1.13.51,1.75,1.07,1.88.56.13,1.43-.39,2.6-1.56.78-.78,1.41-1.71,1.88-2.8.48-1.08.84-2.19,1.1-3.31.26-1.13.43-2.24.52-3.35.09-1.1.13-2.09.13-2.96l-.13-2.6c2.04-.52,3.86-.58,5.46-.2.69.17,1.35.45,1.98.81.63.37,1.19.88,1.69,1.53.5.65.89,1.48,1.17,2.5.28,1.02.42,2.24.42,3.67,0,1.26-.01,2.63-.03,4.13-.02,1.5-.03,3.07-.03,4.71,1.82-1.95,3.46-3.78,4.91-5.49,1.45-1.71,2.7-3.2,3.74-4.45,1.17-1.47,2.23-2.84,3.19-4.09l1.3.78ZM342.23,100.78c.69-2.21,1.1-4.37,1.24-6.47.13-2.1.1-4.04-.1-5.82-.2-1.78-.48-3.34-.85-4.68-.37-1.34-.68-2.34-.94-2.99v5.36c0,1.8.02,3.56.06,5.3.04,1.73.12,3.39.23,4.97.11,1.58.23,3.02.36,4.32Z"/>
    <path class="cls-1" d="M389.09,48.65c-1.6-.22-3.09-.41-4.45-.58-1.37-.17-2.61-.3-3.74-.39-.13,1.78-.27,3.76-.42,5.95-.15,2.19-.29,4.47-.42,6.86.56.13,1.16.26,1.79.39.63.13,1.29.24,1.98.33.22.04.43.08.65.1.22.02.43.05.65.1.22.04.42.08.62.1.2.02.4.05.62.1.09.04.18.06.29.06s.21.02.29.06c.26,0,.46.02.58.06.26,0,.43.02.52.06h.52c.09,0,.16.01.23.03.06.02.14.03.23.03h1.56l.26,2.6h-.2c-.09,0-.15.02-.19.06h-2.08c-.22,0-.39-.02-.52-.06h-.58c-.09,0-.19-.01-.29-.03-.11-.02-.21-.03-.29-.03-.3,0-.52-.02-.65-.06-.22,0-.43-.01-.65-.03-.22-.02-.43-.05-.65-.1-.22-.04-.45-.06-.68-.06s-.47-.02-.68-.07c-.61-.09-1.2-.17-1.79-.26-.58-.09-1.16-.17-1.72-.26-.13,2.73-.22,5.39-.26,7.99-.04,2.6-.03,4.95.03,7.05.07,2.1.21,3.85.42,5.23.22,1.39.54,2.21.97,2.47-.22.56-.62,1.09-1.2,1.59-.58.5-1.24.92-1.95,1.27-.71.35-1.45.63-2.21.84-.76.22-1.42.33-1.98.33-1.56.04-2.77-.74-3.64-2.34-.87-1.6-1.47-3.73-1.82-6.37-.35-2.64-.49-5.64-.42-9,.06-3.36.21-6.78.42-10.27.22-3.49.48-6.87.78-10.14.3-3.27.52-6.14.65-8.61.04-1.82.65-3.2,1.82-4.13,1.17-.93,2.61-1.56,4.32-1.89,1.71-.33,3.6-.42,5.66-.29,2.06.13,4.02.31,5.88.55,1.86.24,3.51.45,4.94.65,1.43.19,2.38.23,2.86.1.26,2.08.24,3.9-.07,5.46-.13.65-.33,1.29-.58,1.92-.26.63-.63,1.16-1.11,1.59-.48.43-1.06.75-1.75.94-.69.2-1.54.23-2.54.1Z"/>
    <path class="cls-1" d="M413.14,66.85c-.13.22-.41.86-.84,1.92-.43,1.06-1.03,2.31-1.79,3.74-.76,1.43-1.65,2.95-2.67,4.55-1.02,1.6-2.19,3.08-3.51,4.42-1.32,1.34-2.77,2.45-4.36,3.31-1.58.87-3.3,1.26-5.17,1.17-1.73-.04-3.03-.62-3.9-1.72-.87-1.1-1.45-2.48-1.75-4.13-.3-1.65-.4-3.46-.29-5.43.11-1.97.27-3.84.49-5.62.22-1.78.42-3.34.62-4.68.2-1.34.23-2.25.1-2.73,1.78-.26,3.36-.24,4.74.06.56.13,1.12.33,1.66.58.54.26,1.01.62,1.4,1.07.39.45.67,1.01.84,1.66.17.65.2,1.45.06,2.41-.35,2.47-.58,4.64-.71,6.5-.13,1.86-.09,3.33.13,4.39.22,1.06.63,1.71,1.23,1.95.61.24,1.47-.03,2.6-.81,1.13-.82,2.25-1.97,3.38-3.45,1.13-1.47,2.12-2.95,2.99-4.42,1.04-1.73,1.99-3.55,2.86-5.46l1.88.72ZM395.17,57.88c-1.35,0-2.51-.48-3.47-1.43-.96-.95-1.44-2.1-1.44-3.44s.48-2.55,1.44-3.48c.96-.93,2.12-1.4,3.47-1.4s2.51.47,3.47,1.4c.96.93,1.44,2.09,1.44,3.48s-.48,2.49-1.44,3.44c-.96.95-2.12,1.43-3.47,1.43Z"/>
    <path class="cls-1" d="M422.24,63.08c.65.22,1.22.51,1.72.88.5.37.86.87,1.07,1.49.21.63.27,1.41.16,2.34-.11.93-.42,2.05-.94,3.35-.52,0-.93-.11-1.23-.32-.17-.09-.3-.2-.39-.33.22-.69.3-1.32.26-1.88-.04-.48-.18-.91-.42-1.3-.24-.39-.73-.61-1.46-.65-.17,0-.48.02-.91.06-.43.04-.89.29-1.37.75s-.96,1.18-1.46,2.18c-.5,1-.9,2.45-1.2,4.35-.43,2.73-.33,4.55.32,5.46.65.91,1.62,1.21,2.89.91,1.28-.3,2.75-1.05,4.42-2.24,1.67-1.19,3.28-2.52,4.84-4,1.56-1.47,2.96-2.92,4.19-4.35,1.24-1.43,2.05-2.56,2.44-3.38l1.3,1.04c-1.82,3.42-3.9,6.37-6.24,8.84-2.34,2.47-4.7,4.44-7.09,5.92-2.38,1.47-4.69,2.43-6.92,2.86-2.23.43-4.16.34-5.79-.29-1.62-.63-2.84-1.81-3.64-3.54-.8-1.73-.96-4.03-.49-6.89.48-2.9,1.42-5.17,2.83-6.79,1.41-1.62,2.95-2.82,4.62-3.57,1.67-.76,3.29-1.16,4.87-1.2,1.58-.04,2.79.06,3.61.33Z"/>
    <path class="cls-1" d="M457.47,66.72c-1.73,4.42-3.68,8.3-5.85,11.64-.91,1.43-1.93,2.83-3.05,4.19s-2.33,2.56-3.61,3.58c-1.28,1.02-2.64,1.82-4.09,2.4-1.45.58-2.98.81-4.58.68-1.08-.04-1.97-.58-2.67-1.62s-1.25-2.45-1.66-4.23c-.41-1.78-.69-3.83-.84-6.17-.15-2.34-.23-4.81-.23-7.41s.05-5.28.16-8.03c.11-2.75.25-5.43.42-8.03-.39.04-.76.06-1.11.06s-.69.02-1.04.07h-1.04c-.35,0-.69.02-1.04.06h-4.22l-.2-2.02h.07c.09,0,.17-.02.26-.06.09,0,.2-.01.33-.03.13-.02.3-.05.52-.1.35-.09.78-.16,1.3-.23.52-.06,1.1-.14,1.75-.23.3-.04.63-.09.97-.13.35-.04.69-.09,1.04-.13.35-.09.71-.14,1.11-.16.39-.02.78-.05,1.17-.1.09-.04.17-.06.26-.06.13-1.78.24-3.47.33-5.07.09-1.6.15-3.05.19-4.35.04-1.3.05-2.4.03-3.31-.02-.91-.1-1.6-.23-2.08,2.04-.35,3.83-.3,5.39.13.65.17,1.29.44,1.92.81.63.37,1.17.88,1.62,1.53s.8,1.44,1.04,2.37c.24.93.31,2.07.23,3.41-.04.78-.09,1.66-.13,2.63-.04.98-.11,2-.2,3.09.3,0,.61-.01.91-.03.3-.02.61-.03.91-.03.35-.04.68-.06,1.01-.06h1.01c.35,0,.66-.01.94-.03.28-.02.55-.03.81-.03h2.54l.13,2.01s-.13.02-.26.07c-.13.04-.41.11-.84.19-.39.09-.85.15-1.37.19-.26.04-.53.09-.81.13-.28.04-.58.09-.88.13-.35.04-.69.09-1.04.13-.35.04-.69.09-1.04.13-.35.04-.7.09-1.07.13-.37.04-.73.09-1.07.13-.09,1.78-.16,3.62-.23,5.52-.07,1.91-.12,3.83-.16,5.79v8.16c0,2.58.11,4.75.33,6.5s.64,2.96,1.27,3.61c.63.65,1.57.46,2.83-.58.52-.43,1.07-.98,1.66-1.66.58-.67,1.17-1.43,1.75-2.28.58-.84,1.16-1.73,1.72-2.66.56-.93,1.1-1.85,1.62-2.76,1.17-2.12,2.36-4.4,3.58-6.83l1.43,1.04Z"/>
    <path class="cls-1" d="M477.68,66.85c-.13.22-.41.86-.84,1.92-.43,1.06-1.03,2.31-1.79,3.74-.76,1.43-1.65,2.95-2.67,4.55-1.02,1.6-2.19,3.08-3.51,4.42-1.32,1.34-2.77,2.45-4.36,3.31-1.58.87-3.3,1.26-5.17,1.17-1.73-.04-3.03-.62-3.9-1.72-.87-1.1-1.45-2.48-1.75-4.13-.3-1.65-.4-3.46-.29-5.43.11-1.97.27-3.84.49-5.62.22-1.78.42-3.34.62-4.68.19-1.34.23-2.25.1-2.73,1.78-.26,3.36-.24,4.75.06.56.13,1.11.33,1.66.58.54.26,1.01.62,1.4,1.07.39.45.67,1.01.84,1.66.17.65.2,1.45.07,2.41-.35,2.47-.58,4.64-.71,6.5-.13,1.86-.09,3.33.13,4.39.22,1.06.63,1.71,1.23,1.95.61.24,1.47-.03,2.6-.81,1.13-.82,2.25-1.97,3.38-3.45,1.13-1.47,2.12-2.95,2.99-4.42,1.04-1.73,1.99-3.55,2.86-5.46l1.88.72ZM459.71,57.88c-1.35,0-2.51-.48-3.47-1.43-.96-.95-1.44-2.1-1.44-3.44s.48-2.55,1.44-3.48c.96-.93,2.12-1.4,3.47-1.4s2.51.47,3.47,1.4c.96.93,1.44,2.09,1.44,3.48s-.48,2.49-1.44,3.44c-.96.95-2.12,1.43-3.47,1.43Z"/>
    <path class="cls-1" d="M503.88,65.68c-.09.04-.17.11-.26.2-.09.09-.18.16-.29.23-.11.06-.23.14-.36.23-.09.09-.17.14-.26.16-.09.02-.17.08-.26.16l-.58.39c-.09.09-.19.15-.32.19-.13.04-.24.11-.33.2-.13.09-.26.17-.39.26-.13.09-.26.17-.39.26-.13.09-.27.16-.42.23-.15.07-.29.14-.42.23-.13.09-.27.17-.42.26-.15.09-.31.17-.49.26-.09.04-.16.09-.23.13-.07.04-.14.09-.23.13l-.26.13s-.09.06-.13.06-.09.02-.13.06c-.17.04-.35.13-.52.26-.17.04-.35.13-.52.26-.35.17-.72.34-1.11.49-.39.15-.78.31-1.17.49-.39.17-.78.33-1.17.46s-.8.26-1.24.39c-.22.04-.4.09-.55.13-.15.04-.31.09-.49.13-.13.78-.33,1.56-.58,2.34-.52,1.69-1.27,3.2-2.24,4.52-.97,1.32-2.07,2.41-3.28,3.25-1.21.85-2.5,1.41-3.87,1.69-1.36.28-2.7.21-4-.23-1.3-.39-2.43-1.09-3.38-2.11-.95-1.02-1.68-2.21-2.18-3.58-.5-1.36-.76-2.88-.78-4.55-.02-1.67.23-3.35.75-5.04.52-1.69,1.27-3.19,2.24-4.52.97-1.32,2.07-2.4,3.28-3.25,1.21-.84,2.5-1.4,3.87-1.66,1.36-.26,2.7-.19,4,.19,1.82.61,3.28,1.77,4.39,3.48,1.1,1.71,1.74,3.67,1.92,5.88h.2c.35-.09.71-.16,1.11-.23.39-.07.76-.14,1.1-.23.35-.09.7-.18,1.07-.29.37-.11.73-.21,1.07-.29.26-.09.43-.15.52-.2.26-.09.43-.13.52-.13l.26-.13s.09-.01.13-.03c.04-.02.09-.03.13-.03.09-.04.16-.08.23-.1.07-.02.14-.05.23-.1l.97-.39c.26-.04.54-.15.85-.33.35-.17.61-.28.78-.33.35-.17.58-.28.72-.32.09-.09.18-.14.29-.16.11-.02.21-.08.29-.16l.58-.19c.13-.09.26-.16.39-.23l.33-.16c.13-.04.22-.09.26-.13l.78,1.36ZM481.91,80.76c.52.17,1.08.13,1.69-.13.61-.26,1.19-.67,1.75-1.23.56-.56,1.08-1.27,1.56-2.11.48-.84.89-1.79,1.23-2.83.13-.35.23-.69.29-1.04.06-.35.14-.69.23-1.04-.35.04-.68.08-1.01.1-.33.02-.66.01-1.01-.03-.22-.04-.44-.06-.68-.06s-.47-.04-.68-.13c-.22-.04-.45-.09-.68-.13-.24-.04-.47-.11-.68-.19-.43-.13-.83-.3-1.2-.52-.37-.22-.73-.43-1.07-.65-.26-.17-.43-.3-.52-.39-.13.26-.25.53-.36.81-.11.28-.21.55-.29.81-.35,1.04-.56,2.05-.65,3.02-.09.98-.07,1.86.06,2.67.13.8.37,1.47.71,2.02.35.54.78.9,1.3,1.07ZM486.72,65.68c-.82-.26-1.75,0-2.79.78.09.17.26.39.52.65.35.35.71.61,1.11.78.22.17.46.28.71.33.13.04.26.09.39.13.13.04.28.06.46.06.52.13,1.04.2,1.56.2-.13-.74-.36-1.37-.68-1.89s-.75-.87-1.27-1.04Z"/>
    <path class="cls-1" d="M524.29,66.72c-.56,1.08-1.08,2.1-1.56,3.06-.43.82-.88,1.67-1.33,2.54-.46.87-.83,1.54-1.14,2.01-.26.48-.55.99-.88,1.53-.33.54-.71,1.07-1.14,1.59-.22.26-.44.52-.68.78-.24.26-.51.5-.81.71-.09.09-.16.14-.23.16-.06.02-.14.08-.23.16-.09.04-.17.09-.26.13s-.17.09-.26.13c-.04,0-.15.04-.33.13h-.2s-.02.06-.06.06h-.65c-.3,0-.56-.09-.78-.26-.3-.13-.52-.35-.65-.65-.17-.22-.28-.46-.33-.72-.04-.26-.11-.5-.2-.71-.09-.48-.13-.92-.13-1.33v-1.2c.04-.82.09-1.62.13-2.4.04-.78.11-1.56.2-2.34.04-.39.08-.78.1-1.17.02-.39.03-.76.03-1.1v-1.04c0-.35-.02-.65-.06-.91-.04-.17-.15-.3-.33-.39-.13-.09-.3-.02-.52.19l-.39.39c-.17.22-.34.47-.49.75-.15.28-.29.55-.42.81-.17.3-.33.6-.46.88-.13.28-.26.57-.39.88-.22.61-.43,1.18-.65,1.72-.22.54-.41,1.09-.58,1.66-.35,1.08-.65,2.08-.91,2.99-.26.91-.48,1.67-.65,2.27-.09.17-.15.38-.2.62-.04.24-.11.47-.2.68-.09.26-.15.54-.19.84-.3,1.13-.68,2.04-1.14,2.73-.46.69-.94,1.21-1.46,1.56-.52.35-1.05.58-1.59.71-.54.13-1.03.2-1.46.2-1.56.04-2.71-.43-3.45-1.43-.74-1-1.18-2.31-1.33-3.93s-.13-3.46.06-5.49c.2-2.04.43-4.08.72-6.14.28-2.06.51-4,.68-5.82.17-1.82.13-3.32-.13-4.49,1.91-.39,3.58-.35,5,.13.61.22,1.2.54,1.79.97.58.43,1.08,1.04,1.5,1.82.41.78.72,1.73.94,2.86.22,1.13.28,2.49.2,4.1v.32c.3-.56.69-1.18,1.17-1.85.48-.67.97-1.3,1.49-1.88.52-.58,1.06-1.07,1.62-1.46.56-.39,1.13-.59,1.69-.59.69,0,1.19.28,1.5.85.3.56.5,1.25.58,2.05.09.8.09,1.68,0,2.63-.09.95-.17,1.82-.26,2.6,0,.22-.01.46-.03.72-.02.26-.05.5-.1.71v.39c-.09.43-.14.86-.16,1.27-.02.41-.05.81-.1,1.2v1.07c0,.37.02.7.07,1.01.09.35.15.56.2.65l.06.07s.07.01.07.03.02.03.06.03h.07l.2-.06h.19s.04-.07.13-.07c.04-.04.09-.06.13-.06s.11-.02.2-.06c.04-.04.09-.08.13-.1.04-.02.11-.08.2-.16.22-.13.41-.29.58-.49.17-.19.37-.4.58-.62.74-.87,1.39-1.82,1.95-2.86.26-.48.61-1.11,1.04-1.92.43-.8.87-1.59,1.3-2.37.48-.91,1-1.88,1.56-2.92l1.37.65Z"/>
    <path class="cls-1" d="M562.7,47.48c-.09,2.12-.16,4.47-.23,7.05-.06,2.58-.12,5.2-.16,7.87-.04,2.67-.05,5.28-.03,7.83.02,2.56.11,4.85.26,6.89.15,2.04.37,3.74.65,5.1.28,1.37.66,2.18,1.14,2.44-.17.61-.54,1.18-1.1,1.72-.56.54-1.2,1.02-1.92,1.43-.71.41-1.44.75-2.18,1.01-.74.26-1.39.41-1.95.46-1.39.09-2.5-.41-3.35-1.5-.85-1.08-1.47-2.59-1.88-4.52-.41-1.93-.64-4.17-.68-6.73-.04-2.56,0-5.24.13-8.06-.35-.04-.66-.08-.94-.1-.28-.02-.6-.03-.94-.03-.35-.04-.72-.08-1.11-.1-.39-.02-.76-.05-1.11-.1-.35-.04-.7-.08-1.07-.1-.37-.02-.73-.03-1.07-.03-.17-.04-.35-.06-.52-.06s-.35-.02-.52-.07c-.17,0-.34,0-.49-.03-.15-.02-.32-.03-.49-.03-.35-.04-.66-.08-.94-.1-.28-.02-.58-.05-.88-.1-.09,0-.15-.01-.2-.03-.04-.02-.11-.03-.19-.03-.35,2.47-.65,4.88-.91,7.21s-.51,4.48-.75,6.44-.48,3.62-.71,5-.49,2.36-.75,2.93c-.22.65-.61,1.25-1.17,1.79-.56.54-1.2,1.02-1.92,1.43-.71.41-1.45.75-2.21,1.01-.76.26-1.42.39-1.98.39,1.17-7.32,2.37-13.74,3.61-19.24,1.24-5.5,2.48-10.27,3.74-14.3,1.26-4.03,2.51-7.39,3.77-10.07,1.26-2.69,2.48-4.88,3.67-6.56,1.19-1.69,2.34-2.96,3.45-3.8,1.11-.85,2.13-1.42,3.09-1.72.95-.3,1.82-.44,2.6-.42.78.02,1.45.08,2.01.16.22,0,.5.04.85.13h.13c.61.13,1.21.37,1.82.71.61.35,1.16.85,1.66,1.5.5.65.91,1.47,1.23,2.47.33,1,.51,2.23.55,3.71v1.17ZM549.77,65.42c.3.04.59.08.88.1.28.02.57.03.88.03.09-1,.16-2.02.23-3.06.06-1.04.14-2.06.23-3.05.04-.78.13-1.74.26-2.89.13-1.15.23-2.33.29-3.54.06-1.21.11-2.43.13-3.64.02-1.21-.03-2.3-.16-3.25-.13-.95-.35-1.71-.65-2.27-.3-.56-.71-.85-1.24-.85-1.26.04-2.36.67-3.32,1.89-.95,1.21-1.8,2.82-2.53,4.81-.74,1.99-1.39,4.27-1.95,6.82-.56,2.56-1.04,5.2-1.43,7.93.13,0,.24.02.32.06.26.04.54.08.85.1.3.02.61.05.91.1.17.04.34.06.49.06s.31.02.49.06c.17.04.33.06.49.06s.33.02.55.06c.35.04.69.08,1.04.1.35.02.69.05,1.04.1.39.09.77.14,1.14.16.37.02.72.06,1.07.1Z"/>
    <path class="cls-1" d="M601.96,68.54c-.09.26-.29.8-.62,1.62-.33.82-.78,1.79-1.37,2.89-.58,1.11-1.32,2.24-2.21,3.41-.89,1.17-1.96,2.24-3.22,3.22s-2.72,1.75-4.39,2.34-3.54.81-5.62.68c-1.3-.09-2.3-.43-2.99-1.04-.69-.61-1.18-1.39-1.46-2.34-.28-.95-.41-2.04-.39-3.25.02-1.21.14-2.47.36-3.77-.39.69-.94,1.41-1.66,2.15-.71.74-1.53,1.39-2.44,1.95-.91.56-1.9.98-2.96,1.23-1.06.26-2.14.26-3.22,0-1.65-.39-2.79-1.16-3.41-2.31-.63-1.15-.84-2.42-.65-3.8.2-1.39.76-2.76,1.69-4.13.93-1.36,2.11-2.44,3.54-3.22,1.08-.56,2.14-.98,3.18-1.24,1.04-.26,2.03-.4,2.96-.42.93-.02,1.78.01,2.54.1.76.09,1.38.19,1.85.32.22-1.82.41-3.76.58-5.82.17-2.06.31-4.09.42-6.11s.2-3.95.26-5.82c.06-1.86.1-3.52.1-4.97v-3.58c0-.93-.02-1.48-.06-1.66,2.12-.04,3.99.24,5.59.84.69.26,1.34.62,1.95,1.07.61.46,1.14,1.03,1.59,1.72.45.69.78,1.53.97,2.5.2.97.21,2.13.03,3.48-.26,1.91-.56,4.08-.91,6.53-.35,2.45-.67,4.93-.97,7.44-.3,2.51-.55,4.94-.75,7.28-.2,2.34-.23,4.33-.1,5.98.13,1.65.44,2.83.94,3.54.5.71,1.27.73,2.31.03,1.3-.87,2.38-1.77,3.25-2.7.87-.93,1.58-1.79,2.14-2.57.65-.91,1.17-1.82,1.56-2.73l1.56,1.1ZM572.65,70.62c-.09,1.17.18,1.91.81,2.21.63.3,1.4.23,2.31-.23s1.85-1.24,2.83-2.34c.97-1.1,1.76-2.46,2.37-4.06-.48,0-1.16.01-2.05.03-.89.02-1.78.17-2.67.46-.89.28-1.69.73-2.41,1.33-.71.61-1.12,1.47-1.2,2.6Z"/>
    <path class="cls-1" d="M634.14,68.54c-.09.26-.29.8-.62,1.62-.33.82-.78,1.79-1.37,2.89-.58,1.11-1.32,2.24-2.21,3.41-.89,1.17-1.96,2.24-3.22,3.22s-2.72,1.75-4.39,2.34-3.54.81-5.62.68c-1.3-.09-2.3-.43-2.99-1.04-.69-.61-1.18-1.39-1.46-2.34-.28-.95-.41-2.04-.39-3.25.02-1.21.14-2.47.36-3.77-.39.69-.94,1.41-1.66,2.15-.71.74-1.53,1.39-2.44,1.95-.91.56-1.9.98-2.96,1.23-1.06.26-2.14.26-3.22,0-1.65-.39-2.79-1.16-3.41-2.31-.63-1.15-.84-2.42-.65-3.8.2-1.39.76-2.76,1.69-4.13.93-1.36,2.11-2.44,3.54-3.22,1.08-.56,2.14-.98,3.18-1.24,1.04-.26,2.03-.4,2.96-.42.93-.02,1.78.01,2.54.1.76.09,1.38.19,1.85.32.22-1.82.41-3.76.58-5.82.17-2.06.31-4.09.42-6.11s.2-3.95.26-5.82c.06-1.86.1-3.52.1-4.97v-3.58c0-.93-.02-1.48-.06-1.66,2.12-.04,3.99.24,5.59.84.69.26,1.34.62,1.95,1.07.61.46,1.14,1.03,1.59,1.72.45.69.78,1.53.97,2.5.2.97.21,2.13.03,3.48-.26,1.91-.56,4.08-.91,6.53-.35,2.45-.67,4.93-.97,7.44-.3,2.51-.55,4.94-.75,7.28-.2,2.34-.23,4.33-.1,5.98.13,1.65.44,2.83.94,3.54.5.71,1.27.73,2.31.03,1.3-.87,2.38-1.77,3.25-2.7.87-.93,1.58-1.79,2.14-2.57.65-.91,1.17-1.82,1.56-2.73l1.56,1.1ZM604.82,70.62c-.09,1.17.18,1.91.81,2.21.63.3,1.4.23,2.31-.23s1.85-1.24,2.83-2.34c.97-1.1,1.76-2.46,2.37-4.06-.48,0-1.16.01-2.05.03-.89.02-1.78.17-2.67.46-.89.28-1.69.73-2.41,1.33-.71.61-1.12,1.47-1.2,2.6Z"/>
    <path class="cls-1" d="M654.29,66.85c-.13.22-.41.86-.84,1.92-.43,1.06-1.03,2.31-1.79,3.74-.76,1.43-1.65,2.95-2.67,4.55-1.02,1.6-2.19,3.08-3.51,4.42-1.32,1.34-2.77,2.45-4.36,3.31-1.58.87-3.3,1.26-5.17,1.17-1.73-.04-3.03-.62-3.9-1.72-.87-1.1-1.45-2.48-1.75-4.13-.3-1.65-.4-3.46-.29-5.43.11-1.97.27-3.84.49-5.62.22-1.78.42-3.34.62-4.68.19-1.34.23-2.25.1-2.73,1.78-.26,3.36-.24,4.75.06.56.13,1.11.33,1.66.58.54.26,1.01.62,1.4,1.07.39.45.67,1.01.84,1.66.17.65.2,1.45.07,2.41-.35,2.47-.58,4.64-.71,6.5-.13,1.86-.09,3.33.13,4.39.22,1.06.63,1.71,1.23,1.95.61.24,1.47-.03,2.6-.81,1.13-.82,2.25-1.97,3.38-3.45,1.13-1.47,2.12-2.95,2.99-4.42,1.04-1.73,1.99-3.55,2.86-5.46l1.88.72ZM636.31,57.88c-1.35,0-2.51-.48-3.47-1.43-.96-.95-1.44-2.1-1.44-3.44s.48-2.55,1.44-3.48c.96-.93,2.12-1.4,3.47-1.4s2.51.47,3.47,1.4c.96.93,1.44,2.09,1.44,3.48s-.48,2.49-1.44,3.44c-.96.95-2.12,1.43-3.47,1.43Z"/>
    <path class="cls-1" d="M663.38,63.08c.65.22,1.22.51,1.72.88.5.37.86.87,1.07,1.49.22.63.27,1.41.16,2.34-.11.93-.42,2.05-.94,3.35-.52,0-.93-.11-1.24-.32-.17-.09-.3-.2-.39-.33.22-.69.3-1.32.26-1.88-.04-.48-.18-.91-.42-1.3-.24-.39-.73-.61-1.46-.65-.17,0-.48.02-.91.06-.43.04-.89.29-1.37.75-.48.46-.96,1.18-1.46,2.18-.5,1-.9,2.45-1.2,4.35-.43,2.73-.33,4.55.33,5.46.65.91,1.61,1.21,2.89.91,1.28-.3,2.75-1.05,4.42-2.24,1.67-1.19,3.28-2.52,4.84-4,1.56-1.47,2.96-2.92,4.19-4.35s2.05-2.56,2.44-3.38l1.3,1.04c-1.82,3.42-3.9,6.37-6.24,8.84-2.34,2.47-4.7,4.44-7.08,5.92-2.38,1.47-4.69,2.43-6.92,2.86-2.23.43-4.16.34-5.79-.29-1.62-.63-2.84-1.81-3.64-3.54-.8-1.73-.96-4.03-.49-6.89.48-2.9,1.42-5.17,2.83-6.79,1.41-1.62,2.95-2.82,4.61-3.57,1.67-.76,3.29-1.16,4.88-1.2,1.58-.04,2.78.06,3.61.33Z"/>
    <path class="cls-1" d="M698.62,66.72c-1.73,4.42-3.68,8.3-5.85,11.64-.91,1.43-1.93,2.83-3.05,4.19s-2.33,2.56-3.61,3.58c-1.28,1.02-2.64,1.82-4.09,2.4-1.45.58-2.98.81-4.58.68-1.08-.04-1.97-.58-2.67-1.62s-1.25-2.45-1.66-4.23c-.41-1.78-.69-3.83-.84-6.17-.15-2.34-.23-4.81-.23-7.41s.05-5.28.16-8.03c.11-2.75.25-5.43.42-8.03-.39.04-.76.06-1.11.06s-.69.02-1.04.07h-1.04c-.35,0-.69.02-1.04.06h-4.22l-.2-2.02h.07c.09,0,.17-.02.26-.06.09,0,.2-.01.33-.03.13-.02.3-.05.52-.1.35-.09.78-.16,1.3-.23.52-.06,1.1-.14,1.75-.23.3-.04.63-.09.97-.13.35-.04.69-.09,1.04-.13.35-.09.71-.14,1.11-.16.39-.02.78-.05,1.17-.1.09-.04.17-.06.26-.06.13-1.78.24-3.47.33-5.07.09-1.6.15-3.05.19-4.35.04-1.3.05-2.4.03-3.31-.02-.91-.1-1.6-.23-2.08,2.04-.35,3.83-.3,5.39.13.65.17,1.29.44,1.92.81.63.37,1.17.88,1.62,1.53s.8,1.44,1.04,2.37c.24.93.31,2.07.23,3.41-.04.78-.09,1.66-.13,2.63-.04.98-.11,2-.2,3.09.3,0,.61-.01.91-.03.3-.02.61-.03.91-.03.35-.04.68-.06,1.01-.06h1.01c.35,0,.66-.01.94-.03.28-.02.55-.03.81-.03h2.54l.13,2.01s-.13.02-.26.07c-.13.04-.41.11-.84.19-.39.09-.85.15-1.37.19-.26.04-.53.09-.81.13-.28.04-.58.09-.88.13-.35.04-.69.09-1.04.13-.35.04-.69.09-1.04.13-.35.04-.7.09-1.07.13-.37.04-.73.09-1.07.13-.09,1.78-.16,3.62-.23,5.52-.07,1.91-.12,3.83-.16,5.79v8.16c0,2.58.11,4.75.33,6.5s.64,2.96,1.27,3.61c.63.65,1.57.46,2.83-.58.52-.43,1.07-.98,1.66-1.66.58-.67,1.17-1.43,1.75-2.28.58-.84,1.16-1.73,1.72-2.66.56-.93,1.1-1.85,1.62-2.76,1.17-2.12,2.36-4.4,3.58-6.83l1.43,1.04Z"/>
    <path class="cls-1" d="M718.83,66.85c-.13.22-.41.86-.84,1.92-.43,1.06-1.03,2.31-1.79,3.74-.76,1.43-1.65,2.95-2.67,4.55-1.02,1.6-2.19,3.08-3.51,4.42-1.32,1.34-2.77,2.45-4.36,3.31-1.58.87-3.3,1.26-5.17,1.17-1.73-.04-3.03-.62-3.9-1.72-.87-1.1-1.45-2.48-1.75-4.13-.3-1.65-.4-3.46-.29-5.43.11-1.97.27-3.84.49-5.62.22-1.78.42-3.34.62-4.68.19-1.34.23-2.25.1-2.73,1.78-.26,3.36-.24,4.75.06.56.13,1.11.33,1.66.58.54.26,1.01.62,1.4,1.07.39.45.67,1.01.84,1.66.17.65.2,1.45.07,2.41-.35,2.47-.58,4.64-.71,6.5-.13,1.86-.09,3.33.13,4.39.22,1.06.63,1.71,1.23,1.95.61.24,1.47-.03,2.6-.81,1.13-.82,2.25-1.97,3.38-3.45,1.13-1.47,2.12-2.95,2.99-4.42,1.04-1.73,1.99-3.55,2.86-5.46l1.88.72ZM700.86,57.88c-1.35,0-2.51-.48-3.47-1.43-.96-.95-1.44-2.1-1.44-3.44s.48-2.55,1.44-3.48c.96-.93,2.12-1.4,3.47-1.4s2.51.47,3.47,1.4c.96.93,1.44,2.09,1.44,3.48s-.48,2.49-1.44,3.44c-.96.95-2.12,1.43-3.47,1.43Z"/>
    <path class="cls-1" d="M745.03,65.68c-.09.04-.17.11-.26.2-.09.09-.18.16-.29.23-.11.06-.23.14-.36.23-.09.09-.17.14-.26.16-.09.02-.17.08-.26.16l-.58.39c-.09.09-.19.15-.32.19-.13.04-.24.11-.33.2-.13.09-.26.17-.39.26-.13.09-.26.17-.39.26-.13.09-.27.16-.42.23-.15.07-.29.14-.42.23-.13.09-.27.17-.42.26-.15.09-.31.17-.49.26-.09.04-.16.09-.23.13-.07.04-.14.09-.23.13l-.26.13s-.09.06-.13.06-.09.02-.13.06c-.17.04-.35.13-.52.26-.17.04-.35.13-.52.26-.35.17-.72.34-1.11.49-.39.15-.78.31-1.17.49-.39.17-.78.33-1.17.46s-.8.26-1.24.39c-.22.04-.4.09-.55.13-.15.04-.31.09-.49.13-.13.78-.33,1.56-.58,2.34-.52,1.69-1.27,3.2-2.24,4.52-.97,1.32-2.07,2.41-3.28,3.25-1.21.85-2.5,1.41-3.87,1.69-1.36.28-2.7.21-4-.23-1.3-.39-2.43-1.09-3.38-2.11-.95-1.02-1.68-2.21-2.18-3.58-.5-1.36-.76-2.88-.78-4.55-.02-1.67.23-3.35.75-5.04.52-1.69,1.27-3.19,2.24-4.52.97-1.32,2.07-2.4,3.28-3.25,1.21-.84,2.5-1.4,3.87-1.66,1.36-.26,2.7-.19,4,.19,1.82.61,3.28,1.77,4.39,3.48,1.1,1.71,1.74,3.67,1.92,5.88h.2c.35-.09.71-.16,1.11-.23.39-.07.76-.14,1.1-.23.35-.09.7-.18,1.07-.29.37-.11.73-.21,1.07-.29.26-.09.43-.15.52-.2.26-.09.43-.13.52-.13l.26-.13s.09-.01.13-.03c.04-.02.09-.03.13-.03.09-.04.16-.08.23-.1.07-.02.14-.05.23-.1l.97-.39c.26-.04.54-.15.85-.33.35-.17.61-.28.78-.33.35-.17.58-.28.72-.32.09-.09.18-.14.29-.16.11-.02.21-.08.29-.16l.58-.19c.13-.09.26-.16.39-.23l.33-.16c.13-.04.22-.09.26-.13l.78,1.36ZM723.05,80.76c.52.17,1.08.13,1.69-.13.61-.26,1.19-.67,1.75-1.23.56-.56,1.08-1.27,1.56-2.11.48-.84.89-1.79,1.23-2.83.13-.35.23-.69.29-1.04.06-.35.14-.69.23-1.04-.35.04-.68.08-1.01.1-.33.02-.66.01-1.01-.03-.22-.04-.44-.06-.68-.06s-.47-.04-.68-.13c-.22-.04-.45-.09-.68-.13-.24-.04-.47-.11-.68-.19-.43-.13-.83-.3-1.2-.52-.37-.22-.73-.43-1.07-.65-.26-.17-.43-.3-.52-.39-.13.26-.25.53-.36.81-.11.28-.21.55-.29.81-.35,1.04-.56,2.05-.65,3.02-.09.98-.07,1.86.06,2.67.13.8.37,1.47.71,2.02.35.54.78.9,1.3,1.07ZM727.87,65.68c-.82-.26-1.75,0-2.79.78.09.17.26.39.52.65.35.35.71.61,1.11.78.22.17.46.28.71.33.13.04.26.09.39.13.13.04.28.06.46.06.52.13,1.04.2,1.56.2-.13-.74-.36-1.37-.68-1.89s-.75-.87-1.27-1.04Z"/>
    <path class="cls-1" d="M765.43,66.72c-.56,1.08-1.08,2.1-1.56,3.06-.43.82-.88,1.67-1.33,2.54-.46.87-.83,1.54-1.14,2.01-.26.48-.55.99-.88,1.53-.33.54-.71,1.07-1.14,1.59-.22.26-.44.52-.68.78-.24.26-.51.5-.81.71-.09.09-.16.14-.23.16-.06.02-.14.08-.23.16-.09.04-.17.09-.26.13s-.17.09-.26.13c-.04,0-.15.04-.33.13h-.2s-.02.06-.06.06h-.65c-.3,0-.56-.09-.78-.26-.3-.13-.52-.35-.65-.65-.17-.22-.28-.46-.33-.72-.04-.26-.11-.5-.2-.71-.09-.48-.13-.92-.13-1.33v-1.2c.04-.82.09-1.62.13-2.4.04-.78.11-1.56.2-2.34.04-.39.08-.78.1-1.17.02-.39.03-.76.03-1.1v-1.04c0-.35-.02-.65-.06-.91-.04-.17-.15-.3-.33-.39-.13-.09-.3-.02-.52.19l-.39.39c-.17.22-.34.47-.49.75-.15.28-.29.55-.42.81-.17.3-.33.6-.46.88-.13.28-.26.57-.39.88-.22.61-.43,1.18-.65,1.72-.22.54-.41,1.09-.58,1.66-.35,1.08-.65,2.08-.91,2.99-.26.91-.48,1.67-.65,2.27-.09.17-.15.38-.2.62-.04.24-.11.47-.2.68-.09.26-.15.54-.19.84-.3,1.13-.68,2.04-1.14,2.73-.46.69-.94,1.21-1.46,1.56-.52.35-1.05.58-1.59.71-.54.13-1.03.2-1.46.2-1.56.04-2.71-.43-3.45-1.43-.74-1-1.18-2.31-1.33-3.93s-.13-3.46.06-5.49c.2-2.04.43-4.08.72-6.14.28-2.06.51-4,.68-5.82.17-1.82.13-3.32-.13-4.49,1.91-.39,3.58-.35,5,.13.61.22,1.2.54,1.79.97.58.43,1.08,1.04,1.5,1.82.41.78.72,1.73.94,2.86.22,1.13.28,2.49.2,4.1v.32c.3-.56.69-1.18,1.17-1.85.48-.67.97-1.3,1.49-1.88.52-.58,1.06-1.07,1.62-1.46.56-.39,1.13-.59,1.69-.59.69,0,1.19.28,1.5.85.3.56.5,1.25.58,2.05.09.8.09,1.68,0,2.63-.09.95-.17,1.82-.26,2.6,0,.22-.01.46-.03.72-.02.26-.05.5-.1.71v.39c-.09.43-.14.86-.16,1.27-.02.41-.05.81-.1,1.2v1.07c0,.37.02.7.07,1.01.09.35.15.56.2.65l.06.07s.07.01.07.03.02.03.06.03h.07l.2-.06h.19s.04-.07.13-.07c.04-.04.09-.06.13-.06s.11-.02.2-.06c.04-.04.09-.08.13-.1.04-.02.11-.08.2-.16.22-.13.41-.29.58-.49.17-.19.37-.4.58-.62.74-.87,1.39-1.82,1.95-2.86.26-.48.61-1.11,1.04-1.92.43-.8.87-1.59,1.3-2.37.48-.91,1-1.88,1.56-2.92l1.37.65Z"/>
  </g>
</svg>