<svg width="291" height="51" viewBox="0 0 291 51" fill="none" xmlns="http://www.w3.org/2000/svg">
<ellipse cx="24" cy="25.5" rx="24" ry="25.1765" fill="#D9D9D9"/>
<path d="M7.18342 29.0098V18.2098H9.13342V29.0098H7.18342ZM8.11342 29.0098V27.4648H14.4434V29.0098H8.11342ZM18.9708 29.1598C18.1608 29.1598 17.4458 28.9898 16.8258 28.6498C16.2158 28.3098 15.7408 27.8398 15.4008 27.2398C15.0608 26.6298 14.8908 25.9348 14.8908 25.1548C14.8908 24.3748 15.0608 23.6898 15.4008 23.0998C15.7408 22.5098 16.2158 22.0498 16.8258 21.7198C17.4458 21.3798 18.1608 21.2098 18.9708 21.2098C19.7908 21.2098 20.5058 21.3798 21.1158 21.7198C21.7258 22.0498 22.2008 22.5098 22.5408 23.0998C22.8808 23.6898 23.0508 24.3748 23.0508 25.1548C23.0508 25.9348 22.8758 26.6298 22.5258 27.2398C22.1858 27.8398 21.7108 28.3098 21.1008 28.6498C20.4908 28.9898 19.7808 29.1598 18.9708 29.1598ZM18.9708 27.6448C19.3708 27.6448 19.7308 27.5448 20.0508 27.3448C20.3708 27.1348 20.6208 26.8448 20.8008 26.4748C20.9808 26.0948 21.0708 25.6498 21.0708 25.1398C21.0708 24.3898 20.8708 23.7998 20.4708 23.3698C20.0808 22.9398 19.5808 22.7248 18.9708 22.7248C18.3608 22.7248 17.8558 22.9398 17.4558 23.3698C17.0558 23.7998 16.8558 24.3898 16.8558 25.1398C16.8558 25.6498 16.9458 26.0948 17.1258 26.4748C17.3158 26.8448 17.5658 27.1348 17.8758 27.3448C18.1958 27.5448 18.5608 27.6448 18.9708 27.6448ZM27.845 32.2348C26.835 32.2348 26.005 32.0148 25.355 31.5748C24.715 31.1348 24.335 30.5398 24.215 29.7898H26.015C26.105 30.0498 26.3 30.2498 26.6 30.3898C26.91 30.5398 27.31 30.6148 27.8 30.6148C28.51 30.6148 29.035 30.4548 29.375 30.1348C29.715 29.8248 29.885 29.3498 29.885 28.7098V27.0598L30.02 27.0898C29.9 27.6498 29.595 28.0998 29.105 28.4398C28.615 28.7698 28.015 28.9348 27.305 28.9348C26.625 28.9348 26.03 28.7748 25.52 28.4548C25.02 28.1348 24.63 27.6898 24.35 27.1198C24.07 26.5398 23.93 25.8648 23.93 25.0948C23.93 24.3148 24.075 23.6348 24.365 23.0548C24.655 22.4748 25.06 22.0248 25.58 21.7048C26.11 21.3748 26.725 21.2098 27.425 21.2098C28.145 21.2098 28.735 21.3848 29.195 21.7348C29.665 22.0748 29.955 22.5498 30.065 23.1598L29.945 23.1748V21.3598H31.79V28.6948C31.79 29.7848 31.435 30.6448 30.725 31.2748C30.025 31.9148 29.065 32.2348 27.845 32.2348ZM27.92 27.4348C28.53 27.4348 29.015 27.2298 29.375 26.8198C29.745 26.3998 29.93 25.8148 29.93 25.0648C29.93 24.3148 29.745 23.7348 29.375 23.3248C29.005 22.9148 28.515 22.7098 27.905 22.7098C27.305 22.7098 26.82 22.9198 26.45 23.3398C26.08 23.7498 25.895 24.3298 25.895 25.0798C25.895 25.8298 26.08 26.4098 26.45 26.8198C26.82 27.2298 27.31 27.4348 27.92 27.4348ZM37.2814 29.1598C36.4714 29.1598 35.7564 28.9898 35.1364 28.6498C34.5264 28.3098 34.0514 27.8398 33.7114 27.2398C33.3714 26.6298 33.2014 25.9348 33.2014 25.1548C33.2014 24.3748 33.3714 23.6898 33.7114 23.0998C34.0514 22.5098 34.5264 22.0498 35.1364 21.7198C35.7564 21.3798 36.4714 21.2098 37.2814 21.2098C38.1014 21.2098 38.8164 21.3798 39.4264 21.7198C40.0364 22.0498 40.5114 22.5098 40.8514 23.0998C41.1914 23.6898 41.3614 24.3748 41.3614 25.1548C41.3614 25.9348 41.1864 26.6298 40.8364 27.2398C40.4964 27.8398 40.0214 28.3098 39.4114 28.6498C38.8014 28.9898 38.0914 29.1598 37.2814 29.1598ZM37.2814 27.6448C37.6814 27.6448 38.0414 27.5448 38.3614 27.3448C38.6814 27.1348 38.9314 26.8448 39.1114 26.4748C39.2914 26.0948 39.3814 25.6498 39.3814 25.1398C39.3814 24.3898 39.1814 23.7998 38.7814 23.3698C38.3914 22.9398 37.8914 22.7248 37.2814 22.7248C36.6714 22.7248 36.1664 22.9398 35.7664 23.3698C35.3664 23.7998 35.1664 24.3898 35.1664 25.1398C35.1664 25.6498 35.2564 26.0948 35.4364 26.4748C35.6264 26.8448 35.8764 27.1348 36.1864 27.3448C36.5064 27.5448 36.8714 27.6448 37.2814 27.6448Z" fill="black"/>
<path d="M61.776 33.7646V16.4846H65.712L71.472 33.1406H70.176L75.888 16.4846H79.872V33.7646H77.352V17.5166H77.736L72.168 33.7646H69.336L63.768 17.6606H64.152V33.7646H61.776ZM84.3203 38.6846L87.2723 31.9406L87.7763 31.1486L91.4963 21.5246H94.0883L86.8883 38.6846H84.3203ZM87.1523 33.7646L81.9203 21.5246H84.6323L89.0723 32.5406L87.1523 33.7646ZM100.893 33.7646V16.4846H103.437V33.7646H100.893ZM102.141 26.5886V24.5006H111.645V26.5886H102.141ZM102.141 18.5726V16.4846H112.293V18.5726H102.141ZM114.861 33.7646V21.5246H117.357V33.7646H114.861ZM114.741 19.1246V16.3166H117.501V19.1246H114.741ZM125.903 34.0046C124.735 34.0046 123.695 33.7326 122.783 33.1886C121.871 32.6286 121.151 31.8686 120.623 30.9086C120.111 29.9486 119.854 28.8526 119.854 27.6206C119.854 26.3886 120.111 25.3006 120.623 24.3566C121.151 23.3966 121.871 22.6446 122.783 22.1006C123.695 21.5566 124.727 21.2846 125.879 21.2846C126.855 21.2846 127.727 21.4686 128.495 21.8366C129.263 22.2046 129.895 22.7166 130.391 23.3726C130.887 24.0286 131.207 24.8046 131.351 25.7006H128.999C128.839 24.9806 128.487 24.4046 127.943 23.9726C127.415 23.5406 126.743 23.3246 125.927 23.3246C125.223 23.3246 124.607 23.5006 124.079 23.8526C123.551 24.2046 123.143 24.7006 122.855 25.3406C122.567 25.9806 122.423 26.7406 122.423 27.6206C122.423 28.4846 122.567 29.2446 122.855 29.9006C123.143 30.5566 123.551 31.0686 124.079 31.4366C124.607 31.7886 125.231 31.9646 125.951 31.9646C126.735 31.9646 127.399 31.7566 127.943 31.3406C128.503 30.9086 128.863 30.3326 129.023 29.6126H131.375C131.215 30.4926 130.879 31.2606 130.367 31.9166C129.871 32.5726 129.239 33.0846 128.471 33.4526C127.703 33.8206 126.847 34.0046 125.903 34.0046ZM138.96 34.0046C137.536 34.0046 136.488 33.6766 135.816 33.0206C135.16 32.3486 134.832 31.3646 134.832 30.0686V18.7166L137.304 17.7806V30.0926C137.304 30.7326 137.472 31.2046 137.808 31.5086C138.144 31.8126 138.688 31.9646 139.44 31.9646C139.728 31.9646 139.984 31.9406 140.208 31.8926C140.432 31.8446 140.624 31.7886 140.784 31.7246V33.7406C140.608 33.8206 140.36 33.8846 140.04 33.9326C139.72 33.9806 139.36 34.0046 138.96 34.0046ZM132.384 23.5166V21.5246H140.784V23.5166H132.384ZM143.104 33.7646V21.5246H145.6V33.7646H143.104ZM142.984 19.1246V16.3166H145.744V19.1246H142.984ZM154.385 34.0046C153.137 34.0046 152.041 33.7326 151.097 33.1886C150.153 32.6286 149.417 31.8686 148.889 30.9086C148.361 29.9326 148.097 28.8286 148.097 27.5966C148.097 26.3486 148.361 25.2526 148.889 24.3086C149.433 23.3646 150.169 22.6286 151.097 22.1006C152.041 21.5566 153.137 21.2846 154.385 21.2846C155.649 21.2846 156.753 21.5566 157.697 22.1006C158.641 22.6286 159.369 23.3646 159.881 24.3086C160.409 25.2526 160.673 26.3486 160.673 27.5966C160.673 28.8286 160.409 29.9326 159.881 30.9086C159.369 31.8686 158.641 32.6286 157.697 33.1886C156.753 33.7326 155.649 34.0046 154.385 34.0046ZM154.385 31.9646C155.137 31.9646 155.785 31.7806 156.329 31.4126C156.889 31.0446 157.329 30.5326 157.649 29.8766C157.969 29.2206 158.129 28.4526 158.129 27.5726C158.129 26.2606 157.777 25.2286 157.073 24.4766C156.385 23.7086 155.489 23.3246 154.385 23.3246C153.297 23.3246 152.401 23.7086 151.697 24.4766C151.009 25.2446 150.665 26.2766 150.665 27.5726C150.665 28.4526 150.817 29.2206 151.121 29.8766C151.441 30.5326 151.881 31.0446 152.441 31.4126C153.017 31.7806 153.665 31.9646 154.385 31.9646ZM163.236 33.7646V21.5246H165.612V24.4046H165.732V33.7646H163.236ZM171.924 33.7646V25.8926C171.924 25.0446 171.708 24.4126 171.276 23.9966C170.86 23.5806 170.236 23.3726 169.404 23.3726C168.684 23.3726 168.044 23.5326 167.484 23.8526C166.94 24.1726 166.508 24.6126 166.188 25.1726C165.884 25.7326 165.732 26.3966 165.732 27.1646L165.42 24.2366C165.82 23.3246 166.436 22.6046 167.268 22.0766C168.1 21.5486 169.068 21.2846 170.172 21.2846C171.484 21.2846 172.516 21.6526 173.268 22.3886C174.02 23.1246 174.396 24.1006 174.396 25.3166V33.7646H171.924ZM181.541 33.7646L188.045 16.4846H190.253L184.037 33.7646H181.541ZM194.909 33.7646L188.693 16.4846H191.021L197.549 33.7646H194.909ZM184.829 26.8766H194.093V28.9886H184.829V26.8766ZM208.279 33.7646V30.9566L208.519 31.0286C208.263 31.9406 207.735 32.6686 206.935 33.2126C206.135 33.7406 205.175 34.0046 204.055 34.0046C202.951 34.0046 201.983 33.7406 201.151 33.2126C200.335 32.6846 199.695 31.9486 199.231 31.0046C198.783 30.0606 198.559 28.9566 198.559 27.6926C198.559 26.4126 198.791 25.2926 199.255 24.3326C199.719 23.3726 200.367 22.6286 201.199 22.1006C202.031 21.5726 203.007 21.3086 204.127 21.3086C205.295 21.3086 206.255 21.5886 207.007 22.1486C207.775 22.6926 208.279 23.4606 208.519 24.4526L208.183 24.5006V16.4846H210.655V33.7646H208.279ZM204.679 31.9166C205.783 31.9166 206.655 31.5406 207.295 30.7886C207.935 30.0206 208.255 28.9646 208.255 27.6206C208.255 26.3086 207.927 25.2766 207.271 24.5246C206.631 23.7566 205.759 23.3726 204.655 23.3726C203.567 23.3726 202.703 23.7566 202.063 24.5246C201.439 25.2766 201.127 26.3326 201.127 27.6926C201.127 29.0206 201.439 30.0606 202.063 30.8126C202.703 31.5486 203.575 31.9166 204.679 31.9166ZM222.998 33.7646V30.9566L223.238 31.0286C222.982 31.9406 222.454 32.6686 221.654 33.2126C220.854 33.7406 219.894 34.0046 218.774 34.0046C217.67 34.0046 216.702 33.7406 215.87 33.2126C215.054 32.6846 214.414 31.9486 213.95 31.0046C213.502 30.0606 213.278 28.9566 213.278 27.6926C213.278 26.4126 213.51 25.2926 213.974 24.3326C214.438 23.3726 215.086 22.6286 215.918 22.1006C216.75 21.5726 217.726 21.3086 218.846 21.3086C220.014 21.3086 220.974 21.5886 221.726 22.1486C222.494 22.6926 222.998 23.4606 223.238 24.4526L222.902 24.5006V16.4846H225.374V33.7646H222.998ZM219.398 31.9166C220.502 31.9166 221.374 31.5406 222.014 30.7886C222.654 30.0206 222.974 28.9646 222.974 27.6206C222.974 26.3086 222.646 25.2766 221.99 24.5246C221.35 23.7566 220.478 23.3726 219.374 23.3726C218.286 23.3726 217.422 23.7566 216.782 24.5246C216.158 25.2766 215.846 26.3326 215.846 27.6926C215.846 29.0206 216.158 30.0606 216.782 30.8126C217.422 31.5486 218.294 31.9166 219.398 31.9166ZM228.885 33.7646V21.5246H231.381V33.7646H228.885ZM228.765 19.1246V16.3166H231.525V19.1246H228.765ZM239.926 34.0046C238.758 34.0046 237.718 33.7326 236.806 33.1886C235.894 32.6286 235.174 31.8686 234.646 30.9086C234.134 29.9486 233.878 28.8526 233.878 27.6206C233.878 26.3886 234.134 25.3006 234.646 24.3566C235.174 23.3966 235.894 22.6446 236.806 22.1006C237.718 21.5566 238.75 21.2846 239.902 21.2846C240.878 21.2846 241.75 21.4686 242.518 21.8366C243.286 22.2046 243.918 22.7166 244.414 23.3726C244.91 24.0286 245.23 24.8046 245.374 25.7006H243.022C242.862 24.9806 242.51 24.4046 241.966 23.9726C241.438 23.5406 240.766 23.3246 239.95 23.3246C239.246 23.3246 238.63 23.5006 238.102 23.8526C237.574 24.2046 237.166 24.7006 236.878 25.3406C236.59 25.9806 236.446 26.7406 236.446 27.6206C236.446 28.4846 236.59 29.2446 236.878 29.9006C237.166 30.5566 237.574 31.0686 238.102 31.4366C238.63 31.7886 239.254 31.9646 239.974 31.9646C240.758 31.9646 241.422 31.7566 241.966 31.3406C242.526 30.9086 242.886 30.3326 243.046 29.6126H245.398C245.238 30.4926 244.902 31.2606 244.39 31.9166C243.894 32.5726 243.262 33.0846 242.494 33.4526C241.726 33.8206 240.87 34.0046 239.926 34.0046ZM252.983 34.0046C251.559 34.0046 250.511 33.6766 249.839 33.0206C249.183 32.3486 248.855 31.3646 248.855 30.0686V18.7166L251.327 17.7806V30.0926C251.327 30.7326 251.495 31.2046 251.831 31.5086C252.167 31.8126 252.711 31.9646 253.463 31.9646C253.751 31.9646 254.007 31.9406 254.231 31.8926C254.455 31.8446 254.647 31.7886 254.807 31.7246V33.7406C254.631 33.8206 254.383 33.8846 254.063 33.9326C253.743 33.9806 253.383 34.0046 252.983 34.0046ZM246.407 23.5166V21.5246H254.807V23.5166H246.407ZM257.127 33.7646V21.5246H259.623V33.7646H257.127ZM257.007 19.1246V16.3166H259.767V19.1246H257.007ZM268.408 34.0046C267.16 34.0046 266.064 33.7326 265.12 33.1886C264.176 32.6286 263.44 31.8686 262.912 30.9086C262.384 29.9326 262.12 28.8286 262.12 27.5966C262.12 26.3486 262.384 25.2526 262.912 24.3086C263.456 23.3646 264.192 22.6286 265.12 22.1006C266.064 21.5566 267.16 21.2846 268.408 21.2846C269.672 21.2846 270.776 21.5566 271.72 22.1006C272.664 22.6286 273.392 23.3646 273.904 24.3086C274.432 25.2526 274.696 26.3486 274.696 27.5966C274.696 28.8286 274.432 29.9326 273.904 30.9086C273.392 31.8686 272.664 32.6286 271.72 33.1886C270.776 33.7326 269.672 34.0046 268.408 34.0046ZM268.408 31.9646C269.16 31.9646 269.808 31.7806 270.352 31.4126C270.912 31.0446 271.352 30.5326 271.672 29.8766C271.992 29.2206 272.152 28.4526 272.152 27.5726C272.152 26.2606 271.8 25.2286 271.096 24.4766C270.408 23.7086 269.512 23.3246 268.408 23.3246C267.32 23.3246 266.424 23.7086 265.72 24.4766C265.032 25.2446 264.688 26.2766 264.688 27.5726C264.688 28.4526 264.84 29.2206 265.144 29.8766C265.464 30.5326 265.904 31.0446 266.464 31.4126C267.04 31.7806 267.688 31.9646 268.408 31.9646ZM277.26 33.7646V21.5246H279.636V24.4046H279.756V33.7646H277.26ZM285.948 33.7646V25.8926C285.948 25.0446 285.732 24.4126 285.3 23.9966C284.884 23.5806 284.26 23.3726 283.428 23.3726C282.708 23.3726 282.068 23.5326 281.508 23.8526C280.964 24.1726 280.532 24.6126 280.212 25.1726C279.908 25.7326 279.756 26.3966 279.756 27.1646L279.444 24.2366C279.844 23.3246 280.46 22.6046 281.292 22.0766C282.124 21.5486 283.092 21.2846 284.196 21.2846C285.508 21.2846 286.54 21.6526 287.292 22.3886C288.044 23.1246 288.42 24.1006 288.42 25.3166V33.7646H285.948Z" fill="black"/>
</svg>
